<svg width="55" height="40" viewBox="0 0 55 40" fill="none" xmlns="http://www.w3.org/2000/svg">
<path d="M21.1764 29.4118C26.3744 29.4118 30.5882 25.198 30.5882 20C30.5882 14.802 26.3744 10.5883 21.1764 10.5883C15.9784 10.5883 11.7646 14.802 11.7646 20C11.7646 25.198 15.9784 29.4118 21.1764 29.4118Z" fill="#D82E2B"/>
<path d="M32.8634 29.4118C38.0614 29.4118 42.2752 25.198 42.2752 20C42.2752 14.802 38.0614 10.5883 32.8634 10.5883C27.6655 10.5883 23.4517 14.802 23.4517 20C23.4517 25.198 27.6655 29.4118 32.8634 29.4118Z" fill="#EBA240"/>
<path d="M27.0199 12.6306C25.9075 13.51 25.0086 14.6298 24.3906 15.9061C23.7727 17.1824 23.4517 18.582 23.4517 20C23.4517 21.418 23.7727 22.8177 24.3906 24.0939C25.0086 25.3702 25.9075 26.49 27.0199 27.3694C28.1323 26.49 29.0311 25.3702 29.6491 24.0939C30.2671 22.8177 30.5881 21.418 30.5881 20C30.5881 18.582 30.2671 17.1824 29.6491 15.9061C29.0311 14.6298 28.1323 13.51 27.0199 12.6306Z" fill="#ED6A2C"/>
</svg>
