<svg width="55" height="40" viewBox="0 0 55 40" fill="none" xmlns="http://www.w3.org/2000/svg">
<path d="M21.5742 25.647H24.6436L26.5648 14.3811H23.4942L21.5742 25.647Z" fill="white"/>
<path d="M32.7568 18.9047C31.6838 18.3835 31.0262 18.0353 31.0332 17.5082C31.0332 17.0376 31.5897 16.5388 32.7979 16.5388C33.6882 16.5165 34.5708 16.709 35.3709 17.1L35.7874 14.6588C34.9048 14.3404 33.9727 14.1811 33.0344 14.1882C30.0003 14.1882 27.8579 15.7176 27.845 17.9059C27.8285 19.5247 29.3744 20.4282 30.5356 20.9647C31.7309 21.5165 32.1332 21.8682 32.1274 22.3612C32.1191 23.1165 31.1732 23.4623 30.2897 23.4623C29.1467 23.489 28.0158 23.2238 27.0038 22.6917L26.5732 25.2129C27.6678 25.6174 28.8264 25.8211 29.9932 25.8141C33.2215 25.8141 35.3168 24.3035 35.3403 21.9659C35.3462 20.6835 34.5285 19.7082 32.7568 18.9047Z" fill="white"/>
<path d="M43.6554 14.3918H41.2825C40.949 14.3491 40.6108 14.4174 40.3201 14.5863C40.0294 14.7552 39.8024 15.0151 39.6743 15.3259L35.1143 25.6471H38.339C38.339 25.6471 38.866 24.2588 38.9848 23.9541H42.9178C43.0096 24.3494 43.2919 25.6424 43.2919 25.6424H46.1413L43.6554 14.3918ZM39.8696 21.6541C39.9966 21.3283 41.2496 18.1106 41.5001 17.4294C41.9143 19.3706 41.5107 17.4871 42.4178 21.6541H39.8696Z" fill="white"/>
<path d="M18.999 14.3894L15.9919 22.0717L15.6719 20.5105L14.5954 15.3341C14.517 15.0342 14.3328 14.7727 14.0769 14.5978C13.8209 14.4229 13.5104 14.3464 13.2025 14.3823H8.25074L8.21191 14.6176C9.33779 14.8832 10.4228 15.2991 11.4378 15.8541L14.1672 25.6388H17.4166L22.2507 14.3941L18.999 14.3894Z" fill="white"/>
</svg>
