<?xml version="1.0" encoding="utf-8"?>
<!-- Generator: Adobe Illustrator 22.1.0, SVG Export Plug-In . SVG Version: 6.00 Build 0)  -->
<svg version="1.1" id="Layer_1" xmlns="http://www.w3.org/2000/svg" xmlns:xlink="http://www.w3.org/1999/xlink" x="0px" y="0px"
	 width="100px" height="100px" viewBox="0 0 100 100" style="enable-background:new 0 0 100 100;" xml:space="preserve">
<style type="text/css">
	.st0{fill:#FAA420;}
</style>
<path class="st0" d="M58.22,55.53c2.18,2.16,1.84,5.59-0.1,7.39c-0.92,0.85-2.06,1.24-3.27,1.43c-2.75,0.43-5.43-0.04-8.1-0.63
	c-1.39-0.31-2.76-0.67-4.17-1.02c0.99-3.95,1.96-7.82,2.92-11.69c0.09-0.37,0.19-0.47,0.58-0.36c2.33,0.65,4.69,1.2,7,1.91
	C55,53.15,56.76,54.08,58.22,55.53z M56.51,35.97c-2.19-0.75-4.43-1.35-6.75-2.04c-0.95,3.82-1.87,7.47-2.81,11.25
	c2.07,0.41,4.09,0.83,6.12,1.22c1.54,0.29,3.08,0.25,4.61-0.11c3.57-0.83,4.73-5.03,2.84-7.55C59.5,37.38,58.08,36.5,56.51,35.97z
	 M100,47.95c0,1.37,0,2.73,0,4.1c-0.03,0.17-0.07,0.35-0.09,0.52c-0.26,2.18-0.4,4.37-0.8,6.52c-1.71,9.37-5.8,17.6-12.22,24.62
	c-5.68,6.21-12.52,10.69-20.46,13.48c-3.99,1.4-8.09,2.28-12.3,2.62c-0.66,0.05-1.32,0.12-1.98,0.18c-1.43,0-2.86,0-4.3,0
	c-0.19-0.03-0.38-0.08-0.57-0.09c-2.54-0.12-5.04-0.47-7.53-0.99c-5.59-1.18-10.85-3.23-15.73-6.21
	c-7.19-4.39-12.92-10.23-17.17-17.5c-3.81-6.52-6.04-13.55-6.67-21.09C0.13,53.43,0.06,52.74,0,52.05c0-1.37,0-2.73,0-4.1
	c0.03-0.16,0.08-0.31,0.08-0.47c0.11-2.57,0.45-5.11,0.98-7.63c2-9.49,6.35-17.75,13.11-24.71c4.85-5,10.53-8.8,16.98-11.44
	c4.38-1.79,8.93-2.94,13.65-3.42c0.98-0.1,1.97-0.19,2.95-0.28c1.46,0,2.93,0,4.39,0c0.16,0.03,0.32,0.07,0.48,0.08
	c1.62,0.17,3.24,0.28,4.85,0.51c4.64,0.66,9.1,1.99,13.35,3.95c9.53,4.41,16.97,11.15,22.3,20.2c3.85,6.54,6.08,13.61,6.7,21.18
	C99.87,46.6,99.94,47.27,100,47.95z M71.36,37.63c-0.93-2.03-2.52-3.45-4.38-4.62c-1.75-1.11-3.65-1.9-5.59-2.59
	c-0.27-0.1-0.38-0.15-0.29-0.5c0.42-1.56,0.79-3.13,1.18-4.69c0.29-1.18,0.59-2.36,0.87-3.54c0.04-0.17,0.18-0.41-0.17-0.49
	c-1.71-0.41-3.41-0.84-5.15-1.27c-0.73,2.94-1.46,5.85-2.19,8.77c-1.52-0.36-2.99-0.71-4.45-1.06c0.74-2.98,1.47-5.89,2.2-8.83
	c-1.83-0.46-3.6-0.9-5.42-1.35c-0.76,3.02-1.5,6-2.26,9.04c-3.72-0.93-7.35-1.85-11.05-2.78c-0.48,1.94-0.96,3.86-1.44,5.79
	c0.1,0.04,0.16,0.06,0.22,0.08c1.39,0.36,2.8,0.68,4.18,1.08c1.6,0.46,2.45,1.96,1.98,3.68c-0.83,3.1-1.56,6.22-2.32,9.34
	c-0.03,0.13,0.05,0.28,0.08,0.44c0,0-0.11,0.01-0.23,0.03c-0.01,0.07-0.02,0.13-0.04,0.19c-1.15,4.61-2.28,9.21-3.44,13.82
	c-0.32,1.26-1.21,1.85-2.5,1.59c-1.26-0.25-2.5-0.57-3.74-0.9c-0.3-0.08-0.38-0.03-0.49,0.24c-0.48,1.16-1,2.3-1.5,3.45
	c-0.35,0.81-0.7,1.62-1.06,2.46c0.15,0.02,0.25,0.02,0.34,0.04c3.41,0.87,6.81,1.76,10.23,2.6c0.4,0.1,0.48,0.24,0.4,0.57
	c-0.6,2.39-1.22,4.77-1.82,7.15c-0.13,0.5-0.23,1.01-0.34,1.52c1.83,0.46,3.58,0.89,5.39,1.34c0.76-3.02,1.51-6.01,2.26-9
	c1.52,0.39,2.94,0.76,4.43,1.15c-0.74,3-1.49,5.98-2.23,8.98c1.74,0.43,3.4,0.81,5.04,1.24c0.3,0.08,0.41,0.03,0.48-0.25
	c0.49-1.98,0.98-3.96,1.47-5.93c0.23-0.93,0.47-1.86,0.71-2.77c0.25,0.02,0.45,0.03,0.64,0.06c1.61,0.22,3.22,0.54,4.83,0.64
	c1.92,0.11,3.85,0.1,5.75-0.36c2.51-0.61,4.59-1.84,6.15-3.94c1.35-1.82,2.13-3.88,2.61-6.07c0.38-1.74,0.43-3.49-0.13-5.21
	c-0.71-2.2-2.22-3.76-4.12-4.98c-0.45-0.29-0.92-0.55-1.42-0.84c0.14-0.05,0.22-0.08,0.29-0.11c0.06-0.02,0.13-0.03,0.19-0.04
	c2.05-0.59,3.77-1.65,4.94-3.49c1-1.57,1.45-3.3,1.64-5.14C72.25,40.56,72.01,39.06,71.36,37.63z"/>
</svg>
