<svg xmlns="http://www.w3.org/2000/svg" xmlns:xlink="http://www.w3.org/1999/xlink" width="136" height="16.614" viewBox="0 0 136 16.614">
  <defs>
    <style>
      .cls-1 {
        fill: #ff4d6b;
      }

      .cls-2 {
        clip-path: url(#clip-path);
      }
    </style>
    <clipPath id="clip-path">
      <rect id="Rectangle_1993" data-name="Rectangle 1993" class="cls-1" width="136" height="16.614" transform="translate(0 0)"/>
    </clipPath>
  </defs>
  <g id="Group_2605" data-name="Group 2605" class="cls-2">
    <path id="Path_1857" data-name="Path 1857" class="cls-1" d="M172.252,10.255l.062.015c-.474,1.887-.952,3.8-1.433,5.711a8.421,8.421,0,0,0-.228.941c-.084.618-.414.821-1.028.8-1.174-.041-2.35-.011-3.71-.011.523-2.124,1.006-4.087,1.491-6.05-1.622-.45-1.732-.388-2.126,1.179-.349,1.392-.681,2.79-1.075,4.169-.078.269-.4.655-.631.665-1.28.065-2.566.033-3.973.033.071-.444.1-.756.17-1.056,1.135-4.561,2.3-9.115,3.393-13.684.211-.881.592-1.161,1.465-1.1,1.058.076,2.124.017,3.363.017-.487,1.991-.926,3.785-1.364,5.582,1.648.407,1.726.362,2.124-1.209.3-1.183.62-2.361.892-3.548.131-.571.368-.84,1.01-.836q1.861.01,3.721.013Z" transform="translate(-125.217 -1.459)"/>
    <path id="Path_1858" data-name="Path 1858" class="cls-1" d="M235.6,1.97l-.942,3.712a8.512,8.512,0,0,1-1.321.084c-.679-.023-.929.239-1.082.862-.836,3.415-1.734,6.817-2.553,10.235-.179.75-.5.987-1.245.948-1.1-.058-2.206-.015-3.52-.015.87-3.509,1.713-6.9,2.57-10.356l.034-.142q.187-.753.375-1.508h-2.361l.969-3.817q.74,0,1.48,0h.888q3.261,0,6.521-.007c.062,0,.125,0,.185,0" transform="translate(-176.48 -1.544)"/>
    <path id="Path_1859" data-name="Path 1859" class="cls-1" d="M375.435,1.911l-.41,7.234.226.082q.377-.842.753-1.684c.713-1.607,1.445-3.207,2.128-4.826a1.107,1.107,0,0,1,1.192-.821c1.678.046,3.358.015,5.206.015-.1.483-.154.818-.236,1.147-1.137,4.561-2.3,9.118-3.4,13.687-.187.77-.506,1.07-1.311,1.008-.957-.073-1.924-.017-3.105-.017l1.84-7.488-.174-.07q-.749,1.658-1.5,3.317-.42.932-.834,1.868c-1.2,2.7-1.288,2.742-4.5,2.239.128-2.428.257-4.876.386-7.324l-.22-.036c-.521,2.069-1.092,4.127-1.54,6.212-.208.969-.554,1.439-1.627,1.305a23.387,23.387,0,0,0-2.785-.022c.065-.435.086-.744.159-1.04C366.829,12.1,368,7.508,369.109,2.9a1.1,1.1,0,0,1,1.314-1.01c1.635.058,3.274.018,5.011.018" transform="translate(-286.779 -1.484)"/>
    <path id="Path_1860" data-name="Path 1860" class="cls-1" d="M477.2,1.889v7.1l.3.05a5.776,5.776,0,0,0,.261-.679c.463-1.843.943-3.682,1.359-5.536a1.024,1.024,0,0,1,1.249-.953c.986.067,1.981.016,3.167.016-.288,1.149-.527,2.107-.769,3.066-.99,3.929-2.009,7.85-2.946,11.791a1.067,1.067,0,0,1-1.323.98,19.11,19.11,0,0,0-2.581,0c-.83.06-1.159-.2-1.138-1.075.048-2.04.015-4.081.015-6.122l-.434-.036c-.5,1.953-1.08,3.89-1.465,5.865-.218,1.118-.681,1.5-1.784,1.373a25.01,25.01,0,0,0-2.707-.019c.192-.821.337-1.472.5-2.12,1.047-4.21,2.116-8.415,3.13-12.633.19-.792.484-1.149,1.354-1.092,1.206.079,2.42.02,3.818.02" transform="translate(-367.49 -1.461)"/>
    <path id="Path_1861" data-name="Path 1861" class="cls-1" d="M319.882,1.933c-1.866-.045-3.731.021-5.595-.028a1.03,1.03,0,0,0-1.234.956c-.952,3.975-1.967,7.935-2.96,11.9-.23.926-.461,1.855-.741,2.986,1.336,0,2.505-.037,3.671.013a.912.912,0,0,0,1.094-.855c.351-1.575.741-3.141,1.191-4.69a1.232,1.232,0,0,1,.8-.73c.778-.142,1.135.252.941,1.071-.31,1.325-.61,2.654-.911,3.981-.187.832-.007,1.308,1,1.226.89-.073,1.795.024,2.686-.043a.945.945,0,0,0,.69-.543c.34-1.353.577-2.73.9-4.089a2.872,2.872,0,0,0-.924-3.212,4.821,4.821,0,0,0,2.71-3.557c.689-2.8-.433-4.315-3.316-4.384m-3.609,6.308a23.72,23.72,0,0,1,.681-2.536c.082-.217.633-.407.926-.358a1.152,1.152,0,0,1,.806.638,2.014,2.014,0,0,1-2.413,2.256" transform="translate(-242.705 -1.493)"/>
    <path id="Path_1862" data-name="Path 1862" class="cls-1" d="M58.515,2.689c0-.622-.276-.8-.853-.786-1.077.028-2.157.054-3.229-.009a1.3,1.3,0,0,0-1.4.866c-2.34,4.686-4.714,9.352-7.073,14.027-.121.239-.2.5-.366.948a19.965,19.965,0,0,1,2.68.022A2.128,2.128,0,0,0,51,15.98a1.261,1.261,0,0,1,.8-.793,14.04,14.04,0,0,1,2.281-.039c-.058.666-.06,1.168-.151,1.657-.134.722.123.974.849.941,1-.045,2.008-.026,3.014-.006.526.011.784-.144.782-.728q-.048-7.161-.056-14.323M54.4,11.49H52.838c.564-1.338,1.1-2.609,1.635-3.88.071.02.14.039.211.056-.095,1.252-.19,2.5-.289,3.824" transform="translate(-35.769 -1.483)"/>
    <path id="Path_1863" data-name="Path 1863" class="cls-1" d="M534.412,2.761c0-.595-.2-.838-.806-.825-1.183.028-2.37-.048-3.546.041a1.489,1.489,0,0,0-1.017.709c-2.411,4.684-4.778,9.389-7.148,14.094a9.84,9.84,0,0,0-.364.989,20.9,20.9,0,0,1,2.844.024,1.958,1.958,0,0,0,2.475-1.659,1.43,1.43,0,0,1,.838-.909,12.148,12.148,0,0,1,2.271-.043c-.052.905-.093,1.674-.144,2.587,1.327,0,2.536-.034,3.744.013.706.026.939-.226.931-.926q-.068-7.045-.078-14.094M530.3,11.54h-1.545c.575-1.372,1.12-2.669,1.663-3.966l.209.009c-.108,1.3-.215,2.6-.328,3.958" transform="translate(-409.173 -1.516)"/>
    <path id="Path_1864" data-name="Path 1864" class="cls-1" d="M112.69,11.126c-.073.531-.154.912-.172,1.3-.038.832.541,1.293,1.213.836a2.814,2.814,0,0,0,1.041-1.595c.069-.3-.483-.868-.877-1.128-.683-.451-1.471-.739-2.2-1.128A3.2,3.2,0,0,1,109.9,6.133a6.808,6.808,0,0,1,9.19-5.659,3.394,3.394,0,0,1,1.546,4.49.687.687,0,0,1-.468.345c-1.244.029-2.489.016-3.785.016a3.011,3.011,0,0,0,.077-.655c-.062-.422-.162-.839-.247-1.258-.431.185-1.069.26-1.241.583a1.653,1.653,0,0,0-.01,1.5,7.116,7.116,0,0,0,1.895,1.186c3.075,1.684,3.6,3.487,1.9,6.6-1.575,2.878-6.381,4.263-9.26,2.668a3.493,3.493,0,0,1-1.047-4.566.657.657,0,0,1,.438-.238c1.242-.019,2.485-.011,3.8-.011" transform="translate(-84.72 0)"/>
    <path id="Path_1865" data-name="Path 1865" class="cls-1" d="M274.2,2.02c-.3,1.185-.524,2.221-.842,3.227-.065.2-.483.392-.745.4a20.427,20.427,0,0,1-3.012,0c-1.041-.108-1.54.263-1.622,1.286A10.318,10.318,0,0,1,267.761,8H272.4c-.293,1.146-.5,2.15-.827,3.115-.071.211-.547.384-.847.4a22.634,22.634,0,0,1-2.906,0c-.832-.067-1.166.269-1.256,1.049a14.754,14.754,0,0,1-.373,1.6h5.153c-.3,1.166-.519,2.176-.829,3.158a.894.894,0,0,1-.672.485c-2.872.03-5.744.017-8.615.006a1.778,1.778,0,0,1-.474-.168c.7-2.809,1.4-5.582,2.083-8.361.256-1.051.48-2.113.713-3.173.035-.166.071-.332.108-.5.131-.5.265-.993.4-1.489.123-.465.248-.933.371-1.4.228-.237.455-.677.685-.681,2.969-.045,5.94-.03,9.089-.03" transform="translate(-204.575 -1.583)"/>
    <path id="Path_1866" data-name="Path 1866" class="cls-1" d="M7.865,6.763c.155-.811.322-1.468.389-2.136.027-.273-.116-.775-.263-.809a1.212,1.212,0,0,0-.95.227,2.118,2.118,0,0,0-.568,1.01c-.637,2.426-1.266,4.854-1.822,7.3-.091.4.192.885.3,1.331.446-.274,1.069-.447,1.3-.846a18.016,18.016,0,0,0,.763-2.223,1.047,1.047,0,0,1,.678-.606c1.209-.062,2.424-.028,3.62-.028a6.718,6.718,0,0,1-3.735,6.2,8.424,8.424,0,0,1-4.855.483A3.042,3.042,0,0,1,0,13.447a12.559,12.559,0,0,1,.4-2.861,54.32,54.32,0,0,1,1.541-5.7A6.945,6.945,0,0,1,10.778.86a2.5,2.5,0,0,1,1.682,1.8,5.25,5.25,0,0,1,.162.953c.2,2.712-.193,3.146-2.841,3.146Z" transform="translate(-0.001 -0.359)"/>
    <path id="Path_1867" data-name="Path 1867" class="cls-1" d="M582.651,17.71c1.019-4.1,1.979-7.953,2.94-11.809.243-.974.57-1.935.721-2.923.141-.922.588-1.161,1.453-1.1,1.062.071,2.132.017,3.376.017l-2.983,11.986h4.968c-.323,1.255-.578,2.323-.886,3.376a.718.718,0,0,1-.5.437c-2.967.027-5.935.019-9.089.019" transform="translate(-457.126 -1.465)"/>
    <path id="Path_1868" data-name="Path 1868" class="cls-1" d="M441.378,17.766c.51-2.061.961-3.9,1.419-5.729.774-3.093,1.57-6.182,2.316-9.282.144-.6.385-.844,1.009-.824,1.174.037,2.35.011,3.68.011-.086.475-.127.815-.209,1.145-1.133,4.555-2.284,9.106-3.4,13.666-.181.742-.458,1.1-1.292,1.034-1.1-.083-2.207-.02-3.528-.02" transform="translate(-346.288 -1.514)"/>
  </g>
</svg>
