<svg id="ep_logo" xmlns="http://www.w3.org/2000/svg" width="32" height="32" viewBox="0 0 32 32">
  <defs>
    <style>
      .cls-1 {
        fill: #fdfdfd;
      }

      .cls-2 {
        fill: #d21830;
      }

      .cls-3 {
        fill: #01539f;
      }
    </style>
  </defs>
  <g id="Group_2607" data-name="Group 2607" transform="translate(0 0)">
    <path id="Path_1869" data-name="Path 1869" class="cls-1" d="M31.325,34.1H5.275A2.991,2.991,0,0,1,2.3,31.125V5.075A2.991,2.991,0,0,1,5.275,2.1h26.05A2.991,2.991,0,0,1,34.3,5.075V31.147A2.958,2.958,0,0,1,31.325,34.1Z" transform="translate(-2.3 -2.1)"/>
  </g>
  <path id="Path_1870" data-name="Path 1870" class="cls-2" d="M17.58,18.957c0,.441.287.683.815.683h2.579V18.318H18.352C17.845,18.318,17.58,18.56,17.58,18.957ZM35.013,7.1H9.228A2.022,2.022,0,0,0,7.2,9.128v14.3H37.018V9.106A2.013,2.013,0,0,0,35.013,7.1ZM15.575,13.734H11.542c-.573,0-.815.242-.815.815v1.433h3.857v1.3H10.726v1.433c0,.573.242.815.815.815h4.033v1.3H11.52a2.422,2.422,0,0,1-1.168-.154,1.942,1.942,0,0,1-1.036-1.014,2.369,2.369,0,0,1-.154-1.168V14.747a2.475,2.475,0,0,1,.154-1.168,1.871,1.871,0,0,1,1.036-1.014,2.317,2.317,0,0,1,1.168-.154h4.055Zm6.81,6.3c0,.573-.242.815-.815.815H18.462c-.9,0-1.146-.066-1.565-.4a1.9,1.9,0,0,1,.2-3.129c.375-.22.529-.242,1.344-.242h2.534V16.8c0-.573-.242-.815-.815-.815h-2.8V14.769h2.689c.9,0,1.168.066,1.587.4a1.933,1.933,0,0,1,.749,1.675Zm5.466.639a3.155,3.155,0,0,1-1.41.176H23.354V19.64h2.711c1.1,0,1.278-.066,1.278-.6a.5.5,0,0,0-.353-.529,2.864,2.864,0,0,0-.793-.044h-.705c-1.08,0-1.388-.066-1.763-.4A2,2,0,0,1,23.09,16.6a1.829,1.829,0,0,1,.771-1.521,2.248,2.248,0,0,1,1.388-.287h3.2V16h-2.8c-.617,0-.771.022-.9.11a.586.586,0,0,0-.242.529c0,.485.22.6,1.146.6h.9c.926,0,1.3.066,1.631.331a1.819,1.819,0,0,1,.573,1.41A1.9,1.9,0,0,1,27.85,20.676Zm7.229.309a2.475,2.475,0,0,1-.154,1.168,1.9,1.9,0,0,1-1.014,1.014,2.369,2.369,0,0,1-1.168.154H29.856V22.5c0-.287.11-.4.419-.4h2.6c.573,0,.815-.242.815-.815v-.441H31.839a2.475,2.475,0,0,1-1.168-.154,2.081,2.081,0,0,1-1.036-1.124,2.172,2.172,0,0,1-.132-1.036V14.791h1.41v4.077c0,.529.242.749.815.749h1.939V14.769h1.41Z" transform="translate(-6.12 -5.998)"/>
  <path id="Path_1871" data-name="Path 1871" class="cls-3" d="M14.374,80.438h-3.2v2.689h3.2c.573,0,.815-.242.815-.815V81.253C15.19,80.68,14.947,80.438,14.374,80.438Zm3.438,5.223c0,.441.287.683.815.683h2.579v-1.3H18.584C18.077,85.022,17.812,85.264,17.812,85.661ZM34.562,78.3a2.33,2.33,0,0,1-.573.375,2.369,2.369,0,0,1-1.168.154H29.934V78.3H7.3V90.4a2.022,2.022,0,0,0,2.028,2.028H35.091A2.022,2.022,0,0,0,37.118,90.4V78.3ZM15.08,84.427l-.683.022H11.179v3.107H9.614V79.137H14.4a2.422,2.422,0,0,1,1.168.154,1.941,1.941,0,0,1,1.19,1.983v.948a2.015,2.015,0,0,1-.551,1.653A2.166,2.166,0,0,1,15.08,84.427Zm7.537,2.314c0,.573-.242.815-.815.815H18.694c-.9,0-1.146-.066-1.565-.4a1.9,1.9,0,0,1,.2-3.129c.375-.22.529-.242,1.344-.242h2.534V83.5c0-.573-.242-.815-.815-.815h-2.8V81.474h2.689c.9,0,1.168.066,1.587.4a1.933,1.933,0,0,1,.749,1.675v3.2Zm6.457.948a2.475,2.475,0,0,1-.154,1.168,1.9,1.9,0,0,1-1.014,1.014,2.368,2.368,0,0,1-1.168.154H23.851v-.815c0-.286.11-.4.419-.4h2.579c.573,0,.815-.242.815-.815v-.441H25.834a2.475,2.475,0,0,1-1.168-.154,2.081,2.081,0,0,1-1.036-1.124,2.172,2.172,0,0,1-.132-1.036V81.5h1.41v4.1c0,.529.242.749.815.749h1.939V81.5h1.41Z" transform="translate(-6.198 -61.507)"/>
</svg>
