<svg xmlns="http://www.w3.org/2000/svg" width="100" height="100" viewBox="0 0 100 100"><g transform="translate(-338 -635)"><circle cx="50" cy="50" r="50" transform="translate(338 635)" fill="#efefef"/><g transform="translate(368 653)"><path d="M125.6,0l-.435,1.479V44.4l.435.434,19.922-11.776Z" transform="translate(-105.679)" fill="#343434"/><path d="M19.922,0,0,33.055,19.922,44.831V0Z" fill="#8c8c8c"/><path d="M126.631,248.356l-.245.3v15.288l.245.716,19.934-28.073Z" transform="translate(-106.71 -199.753)" fill="#3c3c3b"/><path d="M19.922,264.659v-16.3L0,236.585Z" transform="translate(0 -199.752)" fill="#8c8c8c"/><path d="M127.961,174.989l19.922-11.776-19.922-9.055Z" transform="translate(-108.039 -130.158)" fill="#141414"/><path d="M0,163.214l19.922,11.776V154.159Z" transform="translate(-0.001 -130.158)" fill="#393939"/></g></g></svg>