<svg xmlns="http://www.w3.org/2000/svg" width="690" height="170" fill="none"><path fill="#191919" d="M181.6 60.6h69.8v13H224v73.2h-15.1V73.6h-27.3v-13Zm66.8 23.8h12.9v12h.2c.4-1.7 1.2-3.3 2.4-4.9 2.418-3.4296 5.791-6.0725 9.7-7.6 2-.8 4.1-1.2 6.1-1.2l3.3.1 1.9.2v13.3c-1.972-.4218-3.984-.623-6-.6-2.285-.0444-4.551.4271-6.628 1.3794-2.078.9522-3.914 2.3607-5.372 4.1206-1.5 1.8-2.7 4-3.7 6.7-.9 2.7-1.3 5.7-1.3 9.2v29.7h-13.7l.2-62.4Zm99.8 62.4h-13.5v-8.7h-.2c-1.69 3.197-4.303 5.81-7.5 7.5-3.087 1.845-6.605 2.845-10.2 2.9-8.2 0-14.2-2-17.8-6.1-3.6-4.1-5.5-10.2-5.5-18.4V84.4h13.7v38.3c0 5.5 1 9.4 3.2 11.6 2.1 2.3 5 3.4 8.8 3.4 2.9 0 5.3-.4 7.2-1.3 1.826-.84 3.433-2.088 4.699-3.649s2.156-3.391 2.601-5.351c.5-2.1.8-4.3.8-6.8V84.4h13.7v62.4Zm23.4-20c.4 4 1.9 6.8 4.6 8.5 2.7 1.6 5.8 2.4 9.5 2.4l4.4-.3c1.6-.2 3.2-.6 4.6-1.2 1.4-.5 2.642-1.363 3.6-2.5.931-1.233 1.391-2.758 1.3-4.3-.011-.808-.185-1.605-.511-2.344-.327-.739-.799-1.404-1.389-1.956-1.2-1.2-2.7-2-4.6-2.7-1.9-.7-4-1.3-6.4-1.8l-7.4-1.6c-2.6-.5-5-1.3-7.4-2.1-2.4-.8-4.5-1.9-6.4-3.3-1.903-1.338-3.449-3.124-4.5-5.2-1.246-2.44-1.832-5.163-1.7-7.9 0-3.4.9-6.2 2.5-8.5s3.8-4.1 6.3-5.5c2.6-1.4 5.4-2.4 8.5-3 5.979-1.1792 12.134-1.1452 18.1.1 2.9.7 5.6 1.8 8 3.3 2.4 1.5 4.3 3.5 5.9 6 1.692 2.6865 2.721 5.7373 3 8.9H397c-.7-3.3-2.1-5.5-4.5-6.6-2.562-1.2035-5.371-1.7859-8.2-1.7l-3.5.2c-1.3.2-2.6.5-3.8.9-1.123.4151-2.145 1.0625-3 1.9-.8.9-1.2 1.9-1.2 3.3 0 1.7.6 3 1.8 4.1 1.2 1 2.7 1.9 4.6 2.6 1.9.7 4 1.3 6.4 1.8l7.5 1.6c2.5.5 4.9 1.3 7.4 2.1 2.4.8 4.6 1.9 6.4 3.3 2.037 1.466 3.685 3.408 4.801 5.656 1.115 2.248 1.664 4.735 1.599 7.244 0 3.7-.9 6.8-2.6 9.4-1.7 2.6-3.9 4.7-6.6 6.3-2.7 1.6-5.7 2.8-9 3.5-6.831 1.456-13.899 1.388-20.7-.2-3.3-.9-6.3-2.3-8.7-4-2.557-1.892-4.626-4.367-6.035-7.22-1.408-2.852-2.116-5.999-2.065-9.18h14ZM417 84.4h10.4V65.6h13.7v18.7h12.4v10.3h-12.4V128l.2 3.8c.1 1 .4 1.9.9 2.7.4.7 1.1 1.3 2 1.6.9.4 2.1.5 3.6.5l2.9-.1 2.9-.4v10.6l-4.4.5c-1.5.2-2.9.2-4.4.2-3.6 0-6.6-.4-8.8-1-1.96-.543-3.749-1.576-5.2-3-1.3-1.3-2.1-3-2.6-5-.4-2-.7-4.3-.8-6.9V94.7H417V84.4Zm46.3 0h13v8.5h.2c1.9-3.7 4.6-6.2 8.1-7.8 3.81-1.6467 7.921-2.4795 12.071-2.445 4.15.0344 8.247.9353 12.029 2.645 3.6 1.7 6.7 4.1 9.1 7.1 2.4 3 4.2 6.6 5.4 10.6 1.72 5.936 2.191 12.165 1.382 18.293-.809 6.127-2.88 12.02-6.082 17.307-2.345 3.178-5.427 5.739-8.98 7.464-3.553 1.724-7.472 2.56-11.42 2.436-4.053.097-8.08-.688-11.8-2.3-3.702-1.555-6.867-4.163-9.1-7.5h-.2v31.1h-13.7V84.4Zm48 31.2c0-2.8-.4-5.5-1.1-8.2-.7-2.7-1.8-5-3.3-7.1-1.5-2.1-3.3-3.7-5.4-4.9-2.299-1.2571-4.88-1.9108-7.5-1.9-5.8 0-10.2 2-13.1 6-2.9 4-4.4 9.4-4.4 16.1 0 3.2.4 6.1 1.2 8.8.652 2.423 1.785 4.689 3.331 6.665s3.474 3.62 5.669 4.835c2.1 1.2 4.6 1.7 7.4 1.7 3.2 0 5.8-.7 8-1.9 2.2-1.3 4-3 5.4-5 1.418-2.131 2.435-4.503 3-7 .5-2.7.8-5.3.8-8.1Zm24.3-55h13.7v13h-13.7v-13Zm0 23.8h13.7v62.4h-13.7V84.4Zm26.1-23.8h13.7v86.2h-13.7V60.6Zm55.9 87.9c-5 0-9.4-.9-13.3-2.5-3.9-1.6-7.2-4-9.9-6.8-2.735-3.005-4.812-6.547-6.1-10.4-1.4-4-2.1-8.5-2.1-13.3 0-4.7.7-9.1 2.1-13.1 1.25-3.861 3.33-7.4016 6.094-10.373 2.764-2.9715 6.145-5.3017 9.906-6.827 3.9-1.6 8.3-2.5 13.3-2.5s9.4.9 13.3 2.5c3.9 1.6 7.2 4 9.9 6.8 2.7 2.9 4.7 6.4 6.1 10.4 2.926 8.557 2.926 17.843 0 26.4-1.25 3.861-3.33 7.402-6.094 10.373-2.764 2.971-6.145 5.302-9.906 6.827-4.226 1.701-8.745 2.55-13.3 2.5Zm0-10.9c3 0 5.7-.7 8-1.9 2.3-1.3 4.1-3 5.5-5 1.5-2.1 2.5-4.4 3.2-7.1 2.002-7.822.853-16.117-3.2-23.1-1.471-2.2099-3.485-4.005-5.849-5.2132-2.364-1.2082-4.998-1.789-7.651-1.6868-3 0-5.7.7-8 1.9-2.3 1.3-4.1 3-5.5 5-1.5 2.1-2.5 4.4-3.2 7.1-.7 2.7-1 5.3-1 8s.4 5.4 1 8c.7 2.6 1.8 5 3.2 7.1 1.491 2.19 3.509 3.969 5.868 5.175 2.359 1.206 4.984 1.799 7.632 1.725Zm35.5-53.2h10.4V65.6h13.7v18.7h12.4v10.3h-12.4V128l.2 3.8c.1 1 .4 1.9.9 2.7.4.7 1.1 1.3 2 1.6.9.3 2.1.5 3.6.5l2.9-.1 2.9-.4v10.6l-4.4.5c-1.5.2-2.9.2-4.4.2-3.6 0-6.6-.4-8.8-1-1.96-.543-3.749-1.576-5.2-3-1.3-1.3-2.1-3-2.6-5-.4-2-.7-4.3-.8-6.9V94.7h-10.4V84.4Z"/><path fill="#04DA8D" d="M165.6 60.6h-63L83.1.599998 63.6 60.6.600006 60.5 51.6 97.6 32 157.5l51-37 51 37-19.5-59.9 51.1-37Z"/><path fill="#005128" d="m119 111.2-4.4-13.6-31.5 22.9 35.9-9.3Z"/></svg>