<?xml version="1.0" encoding="utf-8"?>
<!-- Generator: Adobe Illustrator 24.0.3, SVG Export Plug-In . SVG Version: 6.00 Build 0)  -->
<svg version="1.1" id="Layer_1" xmlns="http://www.w3.org/2000/svg" xmlns:xlink="http://www.w3.org/1999/xlink" x="0px" y="0px"
	 width="80px" height="80px" viewBox="0 0 80 80" style="enable-background:new 0 0 80 80;" xml:space="preserve">
<style type="text/css">
	.st0{fill:#62B8A4;}
	.st1{fill:#FFFFFF;}
</style>
<g>
	<polygon class="st0" points="62.7,8.77 40,8.77 17.3,8.77 4.25,36.74 40,71.23 75.75,36.74 	"/>
	<path class="st1" d="M35.18,30.11c0-1.62,0-3.2,0-4.83c-4.12,0-8.21,0-12.35,0c0-2.67,0-5.29,0-7.96c11.42,0,22.86,0,34.32,0
		c0,2.62,0,5.23,0,7.91c-4.09,0-8.2,0-12.34,0c0,1.7,0,3.34,0,5.03c1.39,0.12,2.78,0.19,4.15,0.36c1.8,0.22,3.61,0.43,5.37,0.83
		c1.83,0.41,3.63,0.96,5.4,1.58c1.08,0.37,2.16,0.86,2.84,1.89c0.46,0.69,0.4,1.32-0.18,1.92c-0.83,0.87-1.92,1.33-3.01,1.72
		c-2.24,0.79-4.53,1.35-6.9,1.62c-1.77,0.2-3.54,0.39-5.31,0.57c-0.78,0.08-1.57,0.12-2.41,0.18c0,0.23,0,0.45,0,0.67
		c0,5.29-0.01,10.59,0.01,15.88c0,0.54-0.14,0.7-0.69,0.7c-2.73-0.03-5.47-0.03-8.2,0c-0.53,0-0.71-0.12-0.7-0.68
		c0.02-5.35,0-10.7,0.03-16.06c0-0.56-0.18-0.67-0.71-0.71c-1.74-0.14-3.47-0.36-5.2-0.55c-2.41-0.26-4.78-0.78-7.1-1.49
		c-1.45-0.44-2.86-0.95-4.11-1.84c-1.33-0.94-1.32-2.24,0.01-3.17c1.69-1.18,3.63-1.74,5.59-2.14c1.96-0.4,3.94-0.68,5.92-0.92
		c1.49-0.19,3-0.24,4.5-0.36C34.46,30.24,34.8,30.17,35.18,30.11z M44.78,37.2c-1.06,0.05-2.04,0.13-3.02,0.12
		c-2.01-0.01-4.02-0.08-6.03-0.1c-0.45,0-0.54-0.18-0.53-0.58c0.02-1.61,0.01-3.23,0.01-4.84c0-0.2,0-0.4,0-0.68
		c-1.74,0.1-3.4,0.13-5.05,0.31c-1.78,0.19-3.56,0.46-5.32,0.79c-1.39,0.26-2.77,0.6-3.99,1.4c-0.88,0.58-0.92,1.25,0.02,1.75
		c0.9,0.48,1.86,0.86,2.84,1.14c2.41,0.69,4.89,1.07,7.39,1.27c1.8,0.15,3.6,0.4,5.4,0.43c3.11,0.04,6.22-0.02,9.32-0.1
		c1.46-0.04,2.93-0.15,4.39-0.34c2.03-0.28,4.06-0.61,6.07-1.03c1.06-0.22,2.15-0.51,2.98-1.31c0.47-0.46,0.43-1-0.11-1.37
		c-0.31-0.21-0.63-0.42-0.97-0.57c-2.32-1-4.79-1.39-7.27-1.73c-1.38-0.19-2.76-0.33-4.14-0.44c-0.65-0.06-1.3-0.01-1.99-0.01
		C44.78,33.21,44.78,35.18,44.78,37.2z"/>
</g>
</svg>
