<?xml version="1.0" encoding="utf-8"?>
<!-- Generator: Adobe Illustrator 26.0.0, SVG Export Plug-In . SVG Version: 6.00 Build 0)  -->
<svg version="1.1" id="Layer_1" xmlns="http://www.w3.org/2000/svg" xmlns:xlink="http://www.w3.org/1999/xlink" x="0px" y="0px"
	 viewBox="0 0 60 14" style="enable-background:new 0 0 60 14;" xml:space="preserve">
<style type="text/css">
	.st0{fill:#FFFFFF;}
</style>
<g id="XMLID_00000025410362999093688730000007399181632743297443_">
	<g>
		<path class="st0" d="M57.6,10.9c0,0.5,0.4,0.8,0.8,0.8h1.2v2.2H58c-1.5,0-2.8-1.3-2.8-2.8V1.5h2.4v2.6h2V6h-2V10.9z"/>
		<path class="st0" d="M49.6,13.9c-3,0-4.3-1.9-4.3-4.1V4.1h2.4v5.3c0,1.3,0.7,2.1,2,2.1c1.3,0,2-0.8,2-2.1V4.1H54v5.7
			C54,11.9,52.6,13.9,49.6,13.9L49.6,13.9z"/>
		<rect x="41.5" y="0.4" class="st0" width="2.4" height="13.2"/>
		<path class="st0" d="M37.9,8.8c0-0.8-0.3-1.5-0.8-2c-0.2-0.2-0.5-0.4-0.9-0.6c-0.3-0.1-0.7-0.2-1-0.2c-0.4,0-0.7,0.1-1,0.2
			c-0.3,0.1-0.6,0.3-0.9,0.6c-0.5,0.5-0.8,1.2-0.8,2c0,0.8,0.3,1.5,0.8,2c0.2,0.2,0.5,0.4,0.9,0.6c0.3,0.1,0.7,0.2,1,0.2
			c0.7,0,1.4-0.2,1.9-0.8C37.7,10.3,37.9,9.6,37.9,8.8z M38.8,5.1c1,0.9,1.5,2.1,1.5,3.7c0,1.6-0.5,2.8-1.5,3.7
			c-1,0.9-2.2,1.3-3.6,1.3c-1.4,0-2.6-0.4-3.6-1.3c-1-0.9-1.5-2.1-1.5-3.7c0-1.6,0.5-2.8,1.5-3.7c1-0.9,2.2-1.3,3.6-1.3
			C36.6,3.8,37.8,4.2,38.8,5.1z"/>
		<polygon class="st0" points="30.1,4.1 26.4,13.6 24.1,13.6 20.3,4.1 22.9,4.1 25.2,10.5 27.6,4.1 		"/>
		<path class="st0" d="M18.2,7.6c-0.2-1.2-1.1-2-2.4-2c-1.2,0-2.2,0.9-2.6,2H18.2z M20.4,8.6v0.8h-7.2c0.2,1.5,1.2,2.4,2.6,2.4
			c1.2,0,2-0.6,2.6-1.8l1.8,1c-0.9,1.9-2.3,2.8-4.4,2.8c-1.3,0-2.5-0.5-3.4-1.4c-0.9-0.9-1.4-2.1-1.4-3.6c0-1.5,0.5-2.7,1.4-3.6
			c1-0.9,2.1-1.4,3.5-1.4c1.3,0,2.4,0.4,3.3,1.3S20.4,7.2,20.4,8.6z"/>
		<path class="st0" d="M2.9,5.9H6c1.5,0,2.2-0.6,2.2-1.8S7.5,2.4,6,2.4H2.9V5.9z M2.9,8.1v5.4H0.4V0.2H6c2.9,0,4.7,1.5,4.7,3.8
			c0,1.9-1,3.2-3,4l3.2,5.7H8L5,8.1H2.9z"/>
	</g>
	<g>
	</g>
</g>
</svg>
